<svg width="249" height="168" viewBox="0 0 249 168" fill="none" xmlns="http://www.w3.org/2000/svg">
<path d="M113.62 144.67C102.12 159.85 86.0967 167.44 65.55 167.44C45.0033 167.44 28.9033 159.85 17.25 144.67C5.75 129.337 0 109.02 0 83.72C0 58.42 5.75 38.18 17.25 23C28.9033 7.66667 45.0033 0 65.55 0C86.0967 0 102.12 7.66667 113.62 23C125.273 38.18 131.1 58.42 131.1 83.72C131.1 109.02 125.273 129.337 113.62 144.67ZM36.8 83.72C36.8 115.613 46.3833 131.56 65.55 131.56C84.7167 131.56 94.3 115.613 94.3 83.72C94.3 51.8267 84.7167 35.88 65.55 35.88C46.3833 35.88 36.8 51.8267 36.8 83.72Z" fill="url(#paint0_linear_1666_9481)" fill-opacity="0.6"/>
<path d="M138.541 164.22V137.54L192.591 81.42C203.478 70.2267 208.921 60.72 208.921 52.9C208.921 47.84 207.388 43.7767 204.321 40.71C201.254 37.49 197.038 35.88 191.671 35.88C180.938 35.88 173.041 41.7067 167.981 53.36L136.931 35.19C141.838 23.69 149.198 14.95 159.011 8.97001C168.824 2.99 179.558 0 191.211 0C206.238 0 219.041 4.67667 229.621 14.03C240.354 23.23 245.721 35.65 245.721 51.29C245.721 68.31 237.364 85.1767 220.651 101.89L193.971 128.8H248.021V164.22H138.541Z" fill="url(#paint1_linear_1666_9481)" fill-opacity="0.6"/>
<defs>
<linearGradient id="paint0_linear_1666_9481" x1="124.194" y1="-2.0503e-06" x2="124.193" y2="167.44" gradientUnits="userSpaceOnUse">
<stop stop-color="#06B6D4"/>
<stop offset="1" stop-color="#06B6D4" stop-opacity="0"/>
</linearGradient>
<linearGradient id="paint1_linear_1666_9481" x1="124.194" y1="-2.0503e-06" x2="124.193" y2="167.44" gradientUnits="userSpaceOnUse">
<stop stop-color="#06B6D4"/>
<stop offset="1" stop-color="#06B6D4" stop-opacity="0"/>
</linearGradient>
</defs>
</svg>
